<svg class="svg-icon" style="width: 1.1064453125em; height: 1em;vertical-align: middle;fill: currentColor;overflow: hidden;" viewBox="0 0 1133 1024" version="1.1" xmlns="http://www.w3.org/2000/svg"><path d="M315.799577 860.680311c-9.394495 0-15.898377-7.226535-15.898377-16.621031L325.194072 403.963303c0.722653-9.394495 7.949188-16.62103 17.343684-16.621031h388.787579c9.394495 0 16.62103 7.226535 17.343684 16.621031l25.292872 440.095977c0.722653 9.394495-6.503881 16.62103-15.898377 16.621031H315.799577z m27.460832-57.81228c-0.722653 9.394495 6.503881 16.62103 15.898377 16.62103h355.545519c9.394495 0 15.898377-7.226535 15.898377-16.62103l-20.956952-357.713479c-0.722653-9.394495-7.949188-16.62103-17.343683-16.62103h-310.741003c-9.394495 0-16.62103 7.226535-17.343683 16.62103l-20.956952 357.713479z" fill="#595959" /><path d="M468.279464 484.900494c0 13.730416-10.839802 24.570219-24.570219 24.570219S419.139026 498.63091 419.139026 484.900494s10.839802-24.570219 24.570219-24.570219 24.570219 10.839802 24.570219 24.570219zM653.278758 484.900494c0 13.730416-10.839802 24.570219-24.570219 24.570219s-24.570219-10.839802-24.570219-24.570219 10.839802-24.570219 24.570219-24.570219 24.570219 10.839802 24.570219 24.570219zM461.052929 442.263938V350.486944c0-26.738179 21.679605-48.417784 48.417784-48.417784h53.476358c26.738179 0 48.417784 21.679605 48.417784 48.417784v91.776994h33.242061V350.486944c0-44.804517-36.132675-80.937191-80.937191-80.937191h-53.476359c-44.804517 0-80.937191 36.132675-80.937191 80.937191v91.776994h31.796754z" fill="#595959" /><path d="M906.930134 361.326747c-0.722653-9.394495-7.949188-16.62103-17.343684-16.621031h-86.718419v-36.855328c0-44.804517-36.132675-80.937191-80.937191-80.937191h-53.476359c-20.234298 0-39.023289 7.226535-53.476358 20.234298 0 0-3.613267 2.890614-7.949189 8.671842l28.183487 17.343683c8.671842-7.949188 20.234298-13.007763 33.24206-13.007762h53.476359c26.738179 0 48.417784 21.679605 48.417784 48.417784v36.855328H668.454481V368.553282h102.616796v31.796753h31.796754v-13.730416h47.695131c9.394495 0 16.62103 7.226535 17.343683 16.62103l20.956952 357.713479c0.722653 9.394495-6.503881 16.62103-15.898377 16.621031h-81.659845l3.613268 41.191249h121.405786c9.394495 0 15.898377-7.226535 15.898377-16.62103l-25.292872-440.818631z" fill="#17BADE" /><path d="M786.969654 417.693719c-6.503881 0-11.562456 2.16796-15.898377 5.781228l5.058575 40.468596c3.613267 1.445307 7.226535 2.890614 11.562456 2.890614 13.730416 0 24.570219-10.839802 24.570218-24.570219-0.722653-13.730416-11.562456-24.570219-25.292872-24.570219z" fill="#17BADE" /></svg>