<svg xmlns="http://www.w3.org/2000/svg" width="76.754" height="71.968" viewBox="0 0 76.754 71.968">
    <g data-name="Group 27322">
        <path data-name="Path 23862" d="M42.515 31.517h-6.289a14.034 14.034 0 0 0-27.873 0H2.064A2.064 2.064 0 0 0 0 33.581v36.323a2.064 2.064 0 0 0 2.064 2.064h40.451a2.064 2.064 0 0 0 2.064-2.064V33.581a2.064 2.064 0 0 0-2.064-2.064zm-20.226-8.255a9.922 9.922 0 0 1 9.768 8.255H12.521a9.922 9.922 0 0 1 9.768-8.255zM40.451 67.84H4.128v-32.2h4.128v6.194a2.064 2.064 0 1 0 4.128 0v-6.189H32.2v6.189a2.064 2.064 0 1 0 4.128 0v-6.189h4.128z"/>
        <g data-name="Group 27321" transform="translate(-937.246 -498.762)">
            <circle data-name="Ellipse 647" cx="21" cy="21" r="21" transform="translate(972 498.762)"/>
            <path data-name="Path 23863" d="M10.6-37.52H8.132L.28-32.958v3.627l6.431-3.44v20.3H10.6z" transform="translate(987.926 544.39)" style="fill:#fff"/>
        </g>
    </g>
</svg>
