<svg xmlns="http://www.w3.org/2000/svg" width="77.532" height="104.464" viewBox="0 0 77.532 104.464">
    <g data-name="shopping-bag (1)">
        <g data-name="Group 27350">
            <path data-name="Path 23873" d="m143.528 175.527-4.081-65.29a2.041 2.041 0 0 0-.983-1.62l-3.158-1.9V94.041a2.04 2.04 0 0 0-2.04-2.04h-57a2.04 2.04 0 0 0-2.04 2.04v13.211l-2.149 1.4a2.04 2.04 0 0 0-.919 1.548l-5.152 65.29a2.04 2.04 0 0 0 2.034 2.2h73.452a2.041 2.041 0 0 0 2.036-2.167zm-12.3-71.272-4.2-2.528 4.2-3.4zm-1.154 4.069h-4.546v-2.739zm-2.561-12.242-5.31 4.307a2.04 2.04 0 0 0-.755 1.585v6.35H88.087v-6.35a2.041 2.041 0 0 0-.755-1.585l-5.31-4.307zm-43.507 12.242h-3.955l3.955-2.582zm-5.7-10 4.28 3.472-4.28 2.794zm-8.059 75.29.322-4.081h10.124a2.04 2.04 0 1 0 0-4.081h-9.8l4.185-53.052h60.417l3.826 61.21z" transform="translate(-66 -73.23)" style="fill:#9d9d9d"/>
            <path data-name="Path 23874" d="M248.041 8.773a2.04 2.04 0 0 0 2.04-2.04V2.04a2.04 2.04 0 1 0-4.081 0v4.693a2.04 2.04 0 0 0 2.041 2.04z" transform="translate(-209.275)" style="fill:#9d9d9d"/>
            <path data-name="Path 23875" d="M184.737 24.24a2.04 2.04 0 1 0 3.534-2.04l-2.346-4.064a2.04 2.04 0 1 0-3.534 2.04z" transform="translate(-158.426 -13.623)" style="fill:#9d9d9d"/>
            <path data-name="Path 23876" d="M299.4 24.987a2.039 2.039 0 0 0 2.787-.747l2.346-4.064a2.04 2.04 0 1 0-3.533-2.04l-2.345 4.064a2.04 2.04 0 0 0 .745 2.787z" transform="translate(-250.968 -13.623)" style="fill:#9d9d9d"/>
            <path data-name="Path 23877" d="M197.392 222h-8.161a2.04 2.04 0 1 0 0 4.081h2.04v12.242a12.242 12.242 0 0 1-24.484 0v-12.239h2.04a2.04 2.04 0 1 0 0-4.081h-8.161a2.04 2.04 0 0 0 0 4.081h2.04v12.242a16.323 16.323 0 0 0 32.645 0v-12.242h2.04a2.04 2.04 0 1 0 0-4.081z" transform="translate(-139.727 -176.707)" style="fill:#9d9d9d"/>
            <path data-name="Path 23878" d="M175.049 452a2.04 2.04 0 1 0 0 4.081 2.04 2.04 0 1 0 0-4.081z" transform="translate(-151.176 -359.778)" style="fill:#9d9d9d"/>
        </g>
    </g>
</svg>
